<svg width="28" height="20" viewBox="0 0 28 20" fill="none" xmlns="http://www.w3.org/2000/svg">
<path d="M15.3594 0.667743C15.7253 0.337381 16.2216 0.151794 16.739 0.151794C17.2565 0.151794 17.7528 0.337381 18.1187 0.667743L26.9003 8.59765C27.2661 8.92812 27.4717 9.37626 27.4717 9.84353C27.4717 10.3108 27.2661 10.7589 26.9003 11.0894L18.1187 19.0193C17.7507 19.3403 17.2577 19.5179 16.7461 19.5139C16.2344 19.5099 15.7449 19.3246 15.3831 18.9979C15.0213 18.6711 14.8161 18.2291 14.8116 17.7671C14.8072 17.3051 15.0039 16.8599 15.3594 16.5276L20.642 11.6057H2.10307C1.58551 11.6057 1.08915 11.4201 0.723181 11.0896C0.357211 10.7591 0.151611 10.3109 0.151611 9.84353C0.151611 9.37617 0.357211 8.92794 0.723181 8.59747C1.08915 8.26699 1.58551 8.08133 2.10307 8.08133H20.642L15.3594 3.1595C14.9935 2.82904 14.788 2.38089 14.788 1.91362C14.788 1.44635 14.9935 0.998205 15.3594 0.667743Z" fill="#0F0F0F"/>
</svg>
