<svg width="95" height="99" viewBox="0 0 95 99" fill="none" xmlns="http://www.w3.org/2000/svg">
<path fill-rule="evenodd" clip-rule="evenodd" d="M94.3861 49.5C86.1572 44.7333 46.5561 44 38.3272 47.6667C36.7844 46.9334 33.6986 46.2 29.5842 46.9334C33.1843 44.7333 39.8702 42.1667 45.0132 38.5001C54.7849 32.2667 63.5279 24.5667 66.0995 15.0333C67.1281 9.90002 67.1282 2.56666 61.9852 3.05176e-05C55.2992 1.46665 42.4417 13.5667 38.3272 19.0667C33.1843 25.6667 27.0126 36.6667 27.0126 46.9334C23.9269 46.9334 21.3554 48.4 20.8411 48.4C18.2695 48.4 17.7553 47.3 14.6694 47.3C13.6409 47.6667 13.6409 48.4 9.52642 48.7667C7.46923 49.1334 3.35488 49.1334 0.269043 49.5C3.35488 49.8667 7.46923 49.8667 9.52642 50.2334C13.6409 50.6 13.6409 51.3334 14.6694 51.7001C17.7553 51.7001 18.2695 50.6001 20.8411 50.6001C21.3554 50.6001 23.9269 52.0668 27.0126 52.0668C27.0126 62.3334 33.1843 73.3334 38.3272 79.9334C42.4417 85.4334 55.2992 97.9001 61.9852 99.0001C67.1282 96.8001 67.1281 89.1001 66.0995 84.3334C63.5279 74.4334 54.7849 66.7334 45.0132 60.5C39.8702 57.2001 33.1843 54.2667 29.5842 52.0668C33.6986 53.1668 36.7844 52.0668 38.3272 51.3334C46.5561 55.0001 86.1572 54.2667 94.3861 49.5ZM85.1287 49.5C72.2711 47.3 48.6133 47.3 41.4131 49.5C48.6133 51.7001 72.2711 51.7001 85.1287 49.5ZM35.7558 49.5C33.1843 48.7667 31.6414 49.1334 29.5842 49.5C31.6414 49.8667 33.1843 50.2334 35.7558 49.5ZM31.1271 42.9001C34.7271 41.0667 38.8416 39.2334 42.4417 36.6667C51.6991 30.4333 59.9278 23.4667 62.4994 14.3C63.0137 11.7333 63.528 5.86668 60.9565 2.93336C54.7849 5.86668 43.9846 16.5 41.4131 20.1667C36.2701 26.7667 32.1556 35.2001 31.1271 42.9001ZM31.1271 56.1001C32.1556 63.8 36.2701 72.2334 41.4131 78.8334C43.9846 82.5001 54.7849 93.1334 60.9565 96.0667C63.528 93.5 63.0137 87.2668 62.4994 84.7001C59.9278 75.5334 51.6991 68.5667 42.4417 62.3334C38.8416 60.1334 34.7271 57.9334 31.1271 56.1001Z" fill="#FF5353" fill-opacity="0.87"/>
</svg>
