<svg width="45" height="46" viewBox="0 0 45 46" fill="none" xmlns="http://www.w3.org/2000/svg">
<path d="M22.5 4.25C20.0377 4.25 17.5995 4.73498 15.3247 5.67726C13.0498 6.61953 10.9828 8.00065 9.24175 9.74175C5.72544 13.2581 3.75 18.0272 3.75 23C3.75 31.2875 9.13125 38.3188 16.575 40.8125C17.5125 40.9625 17.8125 40.3813 17.8125 39.875V36.7062C12.6187 37.8313 11.5125 34.1938 11.5125 34.1938C10.65 32.0188 9.43125 31.4375 9.43125 31.4375C7.725 30.275 9.5625 30.3125 9.5625 30.3125C11.4375 30.4438 12.4313 32.2438 12.4313 32.2438C14.0625 35.0938 16.8188 34.25 17.8875 33.8C18.0562 32.5813 18.5437 31.7563 19.0688 31.2875C14.9062 30.8188 10.5375 29.2063 10.5375 22.0625C10.5375 19.9813 11.25 18.3125 12.4688 16.9813C12.2812 16.5125 11.625 14.5625 12.6562 12.0313C12.6562 12.0313 14.2312 11.525 17.8125 13.9438C19.2937 13.5313 20.9062 13.325 22.5 13.325C24.0938 13.325 25.7062 13.5313 27.1875 13.9438C30.7687 11.525 32.3438 12.0313 32.3438 12.0313C33.375 14.5625 32.7188 16.5125 32.5312 16.9813C33.75 18.3125 34.4625 19.9813 34.4625 22.0625C34.4625 29.225 30.075 30.8 25.8938 31.2688C26.5688 31.85 27.1875 32.9938 27.1875 34.7375V39.875C27.1875 40.3813 27.4875 40.9813 28.4438 40.8125C35.8875 38.3 41.25 31.2875 41.25 23C41.25 20.5377 40.765 18.0995 39.8227 15.8247C38.8805 13.5498 37.4994 11.4828 35.7583 9.74175C34.0172 8.00065 31.9502 6.61953 29.6753 5.67726C27.4005 4.73498 24.9623 4.25 22.5 4.25Z" fill="black"/>
</svg>
