<svg width="38" height="42" viewBox="0 0 38 42" fill="none" xmlns="http://www.w3.org/2000/svg">
<path d="M7.99827 34.5669C4.32374 27.0941 2.13765 22.5812 2.13765 22.4692C2.13765 22.2864 2.36214 22.3118 4.56989 22.7415C8.45272 23.4981 10.5272 23.7116 13.9854 23.7128C18.5606 23.7141 22.2863 22.9949 25.1811 21.5497C26.7124 20.7851 27.6334 20.1073 28.3877 19.1892C29.3167 18.0576 29.6152 17.2783 29.6259 15.9665C29.6353 14.7189 29.4659 14.061 28.7386 12.5344C28.4507 11.9311 28.198 11.2387 28.1738 10.9957C28.1361 10.6047 28.1684 10.5487 28.4589 10.5153C29.0935 10.4407 32.2261 13.4591 33.3797 15.2565C35.3682 18.3563 35.5296 21.7097 33.8463 24.9524C32.8123 26.9447 31.6696 28.3231 29.7564 29.8898C26.5766 32.4919 22.8806 34.304 17.7768 35.7639C15.0355 36.5485 10.6027 37.5 9.6897 37.5C9.49621 37.5 9.13302 36.8701 8.00096 34.5657L7.99827 34.5669V34.5669ZM9.02153 22.5158C5.45184 22.0568 2.45643 21.6577 2.36365 21.6284C2.20505 21.5777 1.63767 19.6989 1.31763 18.1696C1.23698 17.7826 1.11859 16.7577 1.05412 15.8905C0.766266 12.0206 1.61468 9.34501 3.88824 6.93912C7.73745 2.86919 15.9792 2.37406 25.2778 5.65412C26.9099 6.23062 27.558 6.63091 27.2582 6.8804C27.0364 7.06457 25.5333 7.06189 22.9357 6.87237C18.8753 6.57613 15.7843 7.13658 14.1911 8.4603C11.7656 10.4753 12.1354 14.8923 15.264 21.264C15.6029 21.9539 15.9444 22.6291 16.0224 22.7664C16.204 23.0827 16.0722 23.3764 15.7562 23.3617C15.6216 23.3553 12.591 22.9751 9.02145 22.5159L9.02153 22.5158ZM20.9968 19.0491C18.1478 18.5407 15.5866 16.7872 14.7597 14.7816C14.3631 13.8182 14.3819 12.5612 14.8054 11.8087C15.1886 11.128 16.178 10.3408 17.0641 10.0112C18.5391 9.46275 21.1218 9.68155 23.0041 10.5156C24.7909 11.307 26.3748 12.6987 26.9636 13.9931C27.7193 15.6544 27.09 17.508 25.4712 18.3927C24.3983 18.9785 22.313 19.2841 20.9954 19.0492L20.9968 19.0491Z" fill="#010101"/>
</svg>
