<svg width="45" height="46" viewBox="0 0 45 46" fill="none" xmlns="http://www.w3.org/2000/svg">
<path d="M35.625 6.125C36.6196 6.125 37.5734 6.52009 38.2766 7.22335C38.9799 7.92661 39.375 8.88044 39.375 9.875V36.125C39.375 37.1196 38.9799 38.0734 38.2766 38.7766C37.5734 39.4799 36.6196 39.875 35.625 39.875H9.375C8.38044 39.875 7.42661 39.4799 6.72335 38.7766C6.02009 38.0734 5.625 37.1196 5.625 36.125V9.875C5.625 8.88044 6.02009 7.92661 6.72335 7.22335C7.42661 6.52009 8.38044 6.125 9.375 6.125H35.625ZM34.6875 35.1875V25.25C34.6875 23.6289 34.0435 22.0741 32.8972 20.9278C31.7509 19.7815 30.1961 19.1375 28.575 19.1375C26.9812 19.1375 25.125 20.1125 24.225 21.575V19.4938H18.9938V35.1875H24.225V25.9437C24.225 24.5 25.3875 23.3188 26.8313 23.3188C27.5274 23.3188 28.1951 23.5953 28.6874 24.0876C29.1797 24.5799 29.4562 25.2476 29.4562 25.9437V35.1875H34.6875ZM12.9 16.55C13.7354 16.55 14.5366 16.2181 15.1274 15.6274C15.7181 15.0366 16.05 14.2354 16.05 13.4C16.05 11.6562 14.6438 10.2313 12.9 10.2313C12.0596 10.2313 11.2536 10.5651 10.6594 11.1594C10.0651 11.7536 9.73125 12.5596 9.73125 13.4C9.73125 15.1438 11.1562 16.55 12.9 16.55ZM15.5063 35.1875V19.4938H10.3125V35.1875H15.5063Z" fill="black"/>
</svg>
